# xmcd
#
# Track frame offsets:
#	150
#	17889
#	44571
#	68946
#	86783
#	105418
#	125685
#	148028
#	165857
#	181958
#	193483
#	218902
#	236483
#	261341
#
# Disc length: 3885 seconds
#
# Revision: 1
# Processed by: cddbd v1.5.2PL0 Copyright (c) Steve Scherf et al.
# Submitted via: audiograbber 1.83.01
#
DISCID=d10f2b0e
DTITLE=Erick Bamy - best of rythm'n'blues
DYEAR=2002
DGENRE=Blues
TTITLE0=i can't turn you loose
TTITLE1=nothing from nothing
TTITLE2=respect
TTITLE3=if you don't know me by now
TTITLE4=in the midnight hour
TTITLE5=sail away
TTITLE6=6.3.5.4.7.8.9
TTITLE7=try a little tenderness
TTITLE8=the letter
TTITLE9=you are so beautiful
TTITLE10=livin' for the city
TTITLE11=knock on wood
TTITLE12=i've been lovin' you too long
TTITLE13=everybody needs somebody to love
EXTD=
EXTT0=
EXTT1=
EXTT2=
EXTT3=
EXTT4=
EXTT5=
EXTT6=
EXTT7=
EXTT8=
EXTT9=
EXTT10=
EXTT11=
EXTT12=
EXTT13=
PLAYORDER=
